<svg xmlns="http://www.w3.org/2000/svg" viewBox="0 0 380 304" width="100%" style="max-width:380px;height:auto">
<defs><marker id="a2" viewBox="0 0 10 10" refX="9" refY="5" markerWidth="5" markerHeight="5" orient="auto-start-reverse"><path d="M0 0 L10 5 L0 10 z" fill="#f59e0b"/></marker></defs>
<defs><marker id="a3" viewBox="0 0 10 10" refX="9" refY="5" markerWidth="5" markerHeight="5" orient="auto-start-reverse"><path d="M0 0 L10 5 L0 10 z" fill="#3b82f6"/></marker></defs>
<rect x="70" y="100" width="40" height="180" rx="3" fill="#f1f5f9" stroke="#8792a6" stroke-width="2"/>
<rect x="110" y="100" width="40" height="180" rx="3" fill="#f1f5f9" stroke="#8792a6" stroke-width="2"/>
<rect x="150" y="100" width="40" height="180" rx="3" fill="#f1f5f9" stroke="#8792a6" stroke-width="2"/>
<rect x="190" y="100" width="40" height="180" rx="3" fill="#f1f5f9" stroke="#8792a6" stroke-width="2"/>
<rect x="230" y="100" width="40" height="180" rx="3" fill="#f1f5f9" stroke="#8792a6" stroke-width="2"/>
<rect x="270" y="100" width="40" height="180" rx="3" fill="#f1f5f9" stroke="#8792a6" stroke-width="2"/>
<rect x="98.0" y="100" width="24" height="112" rx="2" fill="#334155"/>
<rect x="138.0" y="100" width="24" height="112" rx="2" fill="#f59e0b"/>
<rect x="218.0" y="100" width="24" height="112" rx="2" fill="#3b82f6"/>
<rect x="258.0" y="100" width="24" height="112" rx="2" fill="#334155"/>
<text x="90.0" y="266" font-family="system-ui,-apple-system,Segoe UI,Roboto,sans-serif" font-size="14" font-weight="700" fill="#8792a6" text-anchor="middle">C</text>
<text x="130.0" y="266" font-family="system-ui,-apple-system,Segoe UI,Roboto,sans-serif" font-size="14" font-weight="700" fill="#8792a6" text-anchor="middle">D</text>
<text x="170.0" y="266" font-family="system-ui,-apple-system,Segoe UI,Roboto,sans-serif" font-size="14" font-weight="700" fill="#8792a6" text-anchor="middle">E</text>
<text x="210.0" y="266" font-family="system-ui,-apple-system,Segoe UI,Roboto,sans-serif" font-size="14" font-weight="700" fill="#8792a6" text-anchor="middle">F</text>
<text x="250.0" y="266" font-family="system-ui,-apple-system,Segoe UI,Roboto,sans-serif" font-size="14" font-weight="700" fill="#8792a6" text-anchor="middle">G</text>
<text x="290.0" y="266" font-family="system-ui,-apple-system,Segoe UI,Roboto,sans-serif" font-size="14" font-weight="700" fill="#8792a6" text-anchor="middle">A</text>
<path d="M150 46 L150 92" stroke="#f59e0b" stroke-width="3" marker-end="url(#a2)"/>
<text x="140" y="42" font-family="system-ui,-apple-system,Segoe UI,Roboto,sans-serif" font-size="14" font-weight="700" fill="#f59e0b" text-anchor="end">Mi giáng (E♭)</text>
<text x="140" y="24" font-family="system-ui,-apple-system,Segoe UI,Roboto,sans-serif" font-size="12" font-weight="500" fill="#8792a6" text-anchor="end">ngón 3</text>
<path d="M230 46 L230 92" stroke="#3b82f6" stroke-width="3" marker-end="url(#a3)"/>
<text x="240" y="42" font-family="system-ui,-apple-system,Segoe UI,Roboto,sans-serif" font-size="14" font-weight="700" fill="#3b82f6" text-anchor="start">Pha thăng (F#)</text>
<text x="240" y="24" font-family="system-ui,-apple-system,Segoe UI,Roboto,sans-serif" font-size="12" font-weight="500" fill="#8792a6" text-anchor="start">ngón 4</text>
</svg>
